:FULLY-SPECIFIED
:FORCE-ALL-JOINTS-BE-3DOF
:DEGREES
2650
root -1.48281 15.2617 -28.6428 1245.05 -72.3822 -168.987
lfemur -51.2316 24.9998 -10.2439
ltibia 60.7878 0 0
lfoot 7.64577 10.0611 0
ltoes -21.5829 0 0
rfemur -34.8441 -16.8941 23.7926
rtibia 68.1393 0 0
rfoot -23.5094 -6.02851 0
rtoes -6.07016 0 0
lowerback 18.8087 4.45316 -0.238856
upperback -0.184353 5.85125 0.724677
thorax -10.8351 2.76725 -0.669211
lowerneck -2.49375 9.47052 -0.315124
upperneck 4.81867 12.6041 0.891805
head 1.85365 6.29527 0.616927
lclavicle -4.19767e-15 -8.63293e-15 0
lhumerus 64.3852 -29.9141 39.8389
lradius 108.72 0 0
lwrist -27.4339 0 0
lhand -37.6407 388.176 0
lfingers 7.12502 0 0
lthumb -10.6925 -662.121 0
rclavicle -4.19767e-15 -8.63293e-15 0
rhumerus 2.29911 73.1073 -72.4078
rradius 101.996 0 0
rwrist -37.1096 0 0
rhand 0.507536 -391.311 0
rfingers 7.12502 0 0
rthumb 26.0764 300.46 0
2651
root -1.60798 15.2469 -28.6148 1245.33 -71.6722 -169.4
lfemur -50.5088 25.376 -9.78751
ltibia 59.8812 0 0
lfoot 8.23941 10.0622 0
ltoes -19.9088 0 0
rfemur -34.5383 -16.9465 23.4823
rtibia 68.3943 0 0
rfoot -23.7222 -6.435 0
rtoes -6.2799 0 0
lowerback 18.661 4.53378 -0.079279
upperback -0.235796 5.99315 0.719489
thorax -10.786 2.82869 -0.788384
lowerneck -2.49439 9.52844 -0.137791
upperneck 4.99628 12.6746 0.85036
head 1.92919 6.33195 0.587129
lclavicle -5.4975e-15 -8.33002e-15 0
lhumerus 60.8586 -28.1896 42.0641
lradius 108.706 0 0
lwrist -27.262 0 0
lhand -37.8383 388.159 0
lfingers 7.12502 0 0
lthumb -10.883 -662.149 0
rclavicle -5.4975e-15 -8.33002e-15 0
rhumerus -0.475114 72.2363 -73.9792
rradius 102.816 0 0
rwrist -39.731 0 0
rhand 0.471132 -390.847 0
rfingers 7.12502 0 0
rthumb 26.0416 300.918 0
2652
root -1.73314 15.2321 -28.5867 1245.61 -70.9621 -169.812
lfemur -49.786 25.7523 -9.33111
ltibia 58.9745 0 0
lfoot 8.83305 10.0633 0
ltoes -18.2348 0 0
rfemur -34.2325 -16.9988 23.172
rtibia 68.6492 0 0
rfoot -23.935 -6.84149 0
rtoes -6.48963 0 0
lowerback 18.5133 4.6144 0.080298
upperback -0.287238 6.13505 0.714301
thorax -10.7369 2.89013 -0.907557
lowerneck -2.49502 9.58636 0.0395429
upperneck 5.1739 12.7452 0.808915
head 2.00473 6.36863 0.557331
lclavicle -6.79733e-15 -8.02711e-15 0
lhumerus 57.332 -26.4651 44.2893
lradius 108.693 0 0
lwrist -27.0901 0 0
lhand -38.036 388.142 0
lfingers 7.12502 0 0
lthumb -11.0736 -662.177 0
rclavicle -6.79733e-15 -8.02711e-15 0
rhumerus -3.24934 71.3652 -75.5505
rradius 103.635 0 0
rwrist -42.3524 0 0
rhand 0.434729 -390.384 0
rfingers 7.12502 0 0
rthumb 26.0067 301.377 0
2653
root -1.85831 15.2173 -28.5587 1245.89 -70.2521 -170.224
lfemur -49.0632 26.1285 -8.87472
ltibia 58.0679 0 0
lfoot 9.42669 10.0644 0
ltoes -16.5607 0 0
rfemur -33.9266 -17.0512 22.8617
rtibia 68.9042 0 0
rfoot -24.1478 -7.24798 0
rtoes -6.69936 0 0
lowerback 18.3656 4.69502 0.239875
upperback -0.338681 6.27696 0.709113
thorax -10.6878 2.95156 -1.02673
lowerneck -2.49566 9.64429 0.216876
upperneck 5.35151 12.8157 0.76747
head 2.08027 6.40531 0.527533
lclavicle -8.09715e-15 -7.7242e-15 0
lhumerus 53.8054 -24.7405 46.5145
lradius 108.68 0 0
lwrist -26.9181 0 0
lhand -38.2337 388.126 0
lfingers 7.12502 0 0
lthumb -11.2642 -662.205 0
rclavicle -8.09715e-15 -7.7242e-15 0
rhumerus -6.02357 70.4942 -77.1219
rradius 104.455 0 0
rwrist -44.9738 0 0
rhand 0.398326 -389.92 0
rfingers 7.12502 0 0
rthumb 25.9718 301.835 0
2654
root -1.98347 15.2024 -28.5306 1246.17 -69.542 -170.637
lfemur -48.3403 26.5048 -8.41832
ltibia 57.1612 0 0
lfoot 10.0203 10.0655 0
ltoes -14.8866 0 0
rfemur -33.6208 -17.1035 22.5513
rtibia 69.1591 0 0
rfoot -24.3605 -7.65447 0
rtoes -6.90909 0 0
lowerback 18.2179 4.77564 0.399452
upperback -0.390124 6.41886 0.703925
thorax -10.6387 3.013 -1.1459
lowerneck -2.49629 9.70221 0.39421
upperneck 5.52913 12.8863 0.726025
head 2.15581 6.44199 0.497735
lclavicle -9.39698e-15 -7.42129e-15 0
lhumerus 50.2788 -23.016 48.7397
lradius 108.666 0 0
lwrist -26.7462 0 0
lhand -38.4313 388.109 0
lfingers 7.12502 0 0
lthumb -11.4548 -662.233 0
rclavicle -9.39698e-15 -7.42129e-15 0
rhumerus -8.7978 69.6231 -78.6932
rradius 105.275 0 0
rwrist -47.5952 0 0
rhand 0.361923 -389.457 0
rfingers 7.12502 0 0
rthumb 25.937 302.293 0
2655
root -2.10864 15.1876 -28.5026 1246.45 -68.832 -171.049
lfemur -47.6175 26.8811 -7.96192
ltibia 56.2545 0 0
lfoot 10.614 10.0667 0
ltoes -13.2126 0 0
rfemur -33.315 -17.1558 22.241
rtibia 69.4141 0 0
rfoot -24.5733 -8.06095 0
rtoes -7.11882 0 0
lowerback 18.0702 4.85626 0.559029
upperback -0.441566 6.56076 0.698737
thorax -10.5896 3.07444 -1.26507
lowerneck -2.49693 9.76013 0.571544
upperneck 5.70674 12.9569 0.68458
head 2.23136 6.47867 0.467937
lclavicle -1.06968e-14 -7.11838e-15 0
lhumerus 46.7523 -21.2915 50.965
lradius 108.653 0 0
lwrist -26.5743 0 0
lhand -38.629 388.092 0
lfingers 7.12502 0 0
lthumb -11.6454 -662.261 0
rclavicle -1.06968e-14 -7.11838e-15 0
rhumerus -11.572 68.7521 -80.2645
rradius 106.095 0 0
rwrist -50.2167 0 0
rhand 0.32552 -388.994 0
rfingers 7.12502 0 0
rthumb 25.9021 302.752 0
2656
root -2.2338 15.1728 -28.4745 1246.73 -68.1219 -171.461
lfemur -46.8947 27.2573 -7.50553
ltibia 55.3479 0 0
lfoot 11.2076 10.0678 0
ltoes -11.5385 0 0
rfemur -33.0092 -17.2082 21.9307
rtibia 69.669 0 0
rfoot -24.7861 -8.46744 0
rtoes -7.32855 0 0
lowerback 17.9225 4.93688 0.718606
upperback -0.493009 6.70267 0.693549
thorax -10.5406 3.13588 -1.38425
lowerneck -2.49756 9.81805 0.748877
upperneck 5.88436 13.0274 0.643135
head 2.3069 6.51535 0.438139
lclavicle -1.19966e-14 -6.81547e-15 0
lhumerus 43.2257 -19.5669 53.1902
lradius 108.64 0 0
lwrist -26.4024 0 0
lhand -38.8267 388.076 0
lfingers 7.12502 0 0
lthumb -11.836 -662.289 0
rclavicle -1.19966e-14 -6.81547e-15 0
rhumerus -14.3463 67.881 -81.8359
rradius 106.914 0 0
rwrist -52.8381 0 0
rhand 0.289117 -388.53 0
rfingers 7.12502 0 0
rthumb 25.8672 303.21 0
2657
root -2.35897 15.158 -28.4465 1247.01 -67.4119 -171.874
lfemur -46.1719 27.6336 -7.04913
ltibia 54.4412 0 0
lfoot 11.8013 10.0689 0
ltoes -9.86444 0 0
rfemur -32.7034 -17.2605 21.6204
rtibia 69.924 0 0
rfoot -24.9989 -8.87393 0
rtoes -7.53828 0 0
lowerback 17.7748 5.0175 0.878183
upperback -0.544451 6.84457 0.688361
thorax -10.4915 3.19732 -1.50342
lowerneck -2.4982 9.87597 0.926211
upperneck 6.06197 13.098 0.60169
head 2.38244 6.55203 0.408341
lclavicle -1.32965e-14 -6.51256e-15 0
lhumerus 39.6991 -17.8424 55.4154
lradius 108.626 0 0
lwrist -26.2305 0 0
lhand -39.0243 388.059 0
lfingers 7.12502 0 0
lthumb -12.0266 -662.317 0
rclavicle -1.32965e-14 -6.51256e-15 0
rhumerus -17.1205 67.01 -83.4072
rradius 107.734 0 0
rwrist -55.4595 0 0
rhand 0.252714 -388.067 0
rfingers 7.12502 0 0
rthumb 25.8324 303.668 0
2658
root -2.48413 15.1431 -28.4184 1247.29 -66.7018 -172.286
lfemur -45.449 28.0098 -6.59273
ltibia 53.5346 0 0
lfoot 12.3949 10.07 0
ltoes -8.19038 0 0
rfemur -32.3976 -17.3129 21.31
rtibia 70.1789 0 0
rfoot -25.2116 -9.28042 0
rtoes -7.74802 0 0
lowerback 17.6271 5.09813 1.03776
upperback -0.595894 6.98647 0.683173
thorax -10.4424 3.25876 -1.62259
lowerneck -2.49883 9.93389 1.10354
upperneck 6.23959 13.1685 0.560244
head 2.45798 6.5887 0.378543
lclavicle -1.45963e-14 -6.20965e-15 0
lhumerus 36.1725 -16.1179 57.6406
lradius 108.613 0 0
lwrist -26.0586 0 0
lhand -39.222 388.042 0
lfingers 7.12502 0 0
lthumb -12.2171 -662.345 0
rclavicle -1.45963e-14 -6.20965e-15 0
rhumerus -19.8947 66.1389 -84.9786
rradius 108.554 0 0
rwrist -58.0809 0 0
rhand 0.21631 -387.603 0
rfingers 7.12502 0 0
rthumb 25.7975 304.127 0
2659
root -2.6093 15.1283 -28.3904 1247.57 -65.9918 -172.699
lfemur -44.7262 28.3861 -6.13633
ltibia 52.6279 0 0
lfoot 12.9885 10.0711 0
ltoes -6.51631 0 0
rfemur -32.0918 -17.3652 20.9997
rtibia 70.4339 0 0
rfoot -25.4244 -9.68691 0
rtoes -7.95775 0 0
lowerback 17.4794 5.17875 1.19734
upperback -0.647337 7.12837 0.677985
thorax -10.3933 3.3202 -1.74177
lowerneck -2.49947 9.99181 1.28088
upperneck 6.4172 13.2391 0.518799
head 2.53352 6.62538 0.348745
lclavicle -1.58961e-14 -5.90674e-15 0
lhumerus 32.6459 -14.3934 59.8658
lradius 108.599 0 0
lwrist -25.8867 0 0
lhand -39.4196 388.025 0
lfingers 7.12502 0 0
lthumb -12.4077 -662.373 0
rclavicle -1.58961e-14 -5.90674e-15 0
rhumerus -22.6689 65.2679 -86.5499
rradius 109.373 0 0
rwrist -60.7023 0 0
rhand 0.179907 -387.14 0
rfingers 7.12502 0 0
rthumb 25.7627 304.585 0
